<svg id="레이어_1" data-name="레이어 1" xmlns="http://www.w3.org/2000/svg" viewBox="0 0 202 189"><defs><style>.cls-1{fill:gray;}.cls-2,.cls-3{fill:none;}.cls-3{stroke:gray;stroke-miterlimit:10;stroke-width:7px;}</style></defs><path class="cls-1" d="M120.87,91.35a50.14,50.14,0,0,1-8,4.65,80.29,80.29,0,0,1,31.15,18.34,40.36,40.36,0,0,1,7.07-2.94A88.72,88.72,0,0,0,120.87,91.35Z" transform="translate(-0.85 -0.65)"/><path class="cls-1" d="M180.85,185.65v-.28l-.71.36A3,3,0,0,0,180.85,185.65Z" transform="translate(-0.85 -0.65)"/><path class="cls-2" d="M84.27,93a43.06,43.06,0,1,0-13.44-4.83A43,43,0,0,0,84.27,93Z" transform="translate(-0.85 -0.65)"/><path class="cls-2" d="M162.85,116.65a33,33,0,0,0-13.64,3,33,33,0,1,0,13.64-3Z" transform="translate(-0.85 -0.65)"/><path class="cls-1" d="M162.85,109.65a39.88,39.88,0,0,0-11.73,1.75,40,40,0,0,0-28.27,38.25,39.88,39.88,0,0,0,13,29.5c-13.09,0-28.4.06-45,.06-38.24,0-69.69-.12-82.78-.32,2.59-40.22,28.12-73.42,62-83.26a50,50,0,1,0-7.89-4.78C26.51,104.17.85,141.58.85,185.65c0,.37,45,.56,90,.56,19.8,0,39.59,0,55.56-.11a40,40,0,0,0,33.73-.37l.71-.36a40,40,0,0,0-18-75.72Zm-114-59a43,43,0,1,1,63.39,37.84,42.57,42.57,0,0,1-13.42,4.58A42.07,42.07,0,0,1,84.27,93,43.06,43.06,0,0,1,48.85,50.65ZM180.56,177.47a33,33,0,1,1-31.35-57.86,33,33,0,0,1,13.64-3,33,33,0,0,1,17.71,60.82Z" transform="translate(-0.85 -0.65)"/><line class="cls-3" x1="177.5" y1="148.5" x2="147.5" y2="148.5"/><line class="cls-3" x1="162.5" y1="163.5" x2="162.5" y2="132.5"/></svg>