<?xml version="1.0" encoding="utf-8"?>
<!-- Generator: Adobe Illustrator 24.2.1, SVG Export Plug-In . SVG Version: 6.00 Build 0)  -->
<svg version="1.1" id="Capa_1" xmlns="http://www.w3.org/2000/svg" xmlns:xlink="http://www.w3.org/1999/xlink" x="0px" y="0px"
	 viewBox="0 0 120 120" style="enable-background:new 0 0 120 120;" xml:space="preserve">
<style type="text/css">
	.st0{fill:none;stroke:#707070;stroke-width:5;stroke-miterlimit:10;}
	.st1{fill:none;stroke:#707070;stroke-width:5;stroke-linecap:round;stroke-linejoin:round;}
</style>
<path class="st0" d="M106.1,21.7c-5.2-6-12.8-9.4-20.8-9.4c-11.4,0-18.6,6.8-22.6,12.5c-1,1.4-1.9,2.8-2.7,4.4
	c-0.8-1.5-1.7-3-2.7-4.4c-4-5.7-11.2-12.5-22.6-12.5c-8-0.1-15.6,3.4-20.8,9.4c-5.2,6-8,13.8-7.9,21.7c0,9,3.5,17.3,11,26.3
	c6.7,8,16.4,16.3,27.6,25.8c4.2,3.6,8.5,7.2,13.1,11.3l0.1,0.1c1.2,1,3,1,4.2,0l0.1-0.1c4.6-4,8.9-7.7,13.1-11.3
	c11.3-9.5,21-17.8,27.7-25.8c7.5-9,11-17.3,11-26.3C114,35.5,111.3,27.7,106.1,21.7z"/>
<polyline class="st1" points="76.8,83.5 60,40.5 43.2,83.5 "/>
<line class="st1" x1="41.8" y1="66.2" x2="78.2" y2="66.2"/>
</svg>
