<svg xmlns="http://www.w3.org/2000/svg" viewBox="0 0 50 50"><defs><style>.cls-1{isolation:isolate;}.cls-2{fill:#e64367;}.cls-3{opacity:0.83;}.cls-4,.cls-5,.cls-6,.cls-7{fill:none;stroke-miterlimit:10;}.cls-4,.cls-6{stroke:#231815;}.cls-4,.cls-5{stroke-width:0.7px;}.cls-5,.cls-7{stroke:#fff;}.cls-6,.cls-7{stroke-width:0.5px;}.cls-8{opacity:0.94;mix-blend-mode:multiply;}.cls-12,.cls-9{font-size:9.92px;font-family:ForteMT, Forte;}.cls-13,.cls-9{fill:#231815;}.cls-10,.cls-11{font-size:6.61px;}.cls-10{letter-spacing:-0.15em;}.cls-11{letter-spacing:0em;}.cls-12,.cls-15{fill:#f7d87d;}.cls-13,.cls-15{font-size:12.42px;font-family:CooperBlack, Cooper Black;}.cls-14{letter-spacing:0.01em;}</style></defs><g class="cls-1"><g id="레이어_1" data-name="레이어 1"><polygon class="cls-2" points="25 5 32.42 2.17 36.76 8.82 44.42 10.89 44.02 18.82 49 25 44.02 31.18 44.42 39.11 36.76 41.18 32.42 47.83 25 45 17.58 47.83 13.24 41.18 5.58 39.11 5.98 31.18 1 25 5.98 18.82 5.58 10.89 13.24 8.82 17.58 2.17 25 5"/><g class="cls-3"><polyline class="cls-4" points="18.61 46.7 14.58 40.53 7.46 38.6"/></g><polyline class="cls-5" points="18.11 46.2 14.08 40.03 6.96 38.1"/><g class="cls-3"><polyline class="cls-6" points="43.17 31.24 43.53 38.6 36.42 40.53 32.39 46.7 25.5 44.08"/></g><polyline class="cls-7" points="42.67 30.74 43.03 38.1 35.92 40.03 31.89 46.2 25 43.58"/><g class="cls-3"><polyline class="cls-4" points="32.39 4.3 36.42 10.47 43.53 12.4"/></g><polyline class="cls-5" points="31.89 3.8 35.92 9.97 43.03 11.9"/><g class="cls-3"><polyline class="cls-4" points="7.83 19.76 7.46 12.4 14.58 10.47 18.61 4.3 25.5 6.92"/></g><polyline class="cls-5" points="7.33 19.26 6.96 11.9 14.08 9.97 18.11 3.8 25 6.42"/><g class="cls-8"><text class="cls-9" transform="translate(13.9 19.02)">tong<tspan class="cls-10" x="19.3" y="0">’</tspan><tspan class="cls-11" x="19.69" y="0">s</tspan></text></g><text class="cls-12" transform="translate(13.5 18.62)">tong<tspan class="cls-10" x="19.3" y="0">’</tspan><tspan class="cls-11" x="19.69" y="0">s</tspan></text><g class="cls-8"><text class="cls-13" transform="translate(9 32.64)">PI<tspan class="cls-14" x="13.63" y="0">C</tspan><tspan x="22.73" y="0">K</tspan></text></g><text class="cls-15" transform="translate(8.5 32.14)">PI<tspan class="cls-14" x="13.63" y="0">C</tspan><tspan x="22.73" y="0">K</tspan></text></g></g></svg>